<?xml version="1.0" encoding="UTF-8"?><svg xmlns="http://www.w3.org/2000/svg" xmlns:xlink="http://www.w3.org/1999/xlink" width="1440pt" zoomAndPan="magnify" viewBox="0 0 1440 809.999993" height="809.999993pt" preserveAspectRatio="xMidYMid meet" version="1.2"><defs><g/></defs><g xml:id="surface1" id="surface1"><g style="fill:rgb(0%,0%,0%);fill-opacity:1;"><g transform="translate(84.305788, 434.906425)"><path style="stroke:none;" d="M 140.800781 -110.742188 L 139.851562 -110.742188 C 109.320312 -110.742188 84.480469 -85.90625 84.480469 -55.214844 C 84.480469 -24.679688 109.320312 0.160156 139.851562 0.160156 L 140.800781 0.160156 C 141.75 0.160156 143.332031 0.160156 146.65625 0.160156 C 152.824219 0.160156 164.851562 0 187.316406 0 L 187.316406 -4.273438 C 187.316406 -6.804688 185.417969 -8.703125 182.886719 -8.703125 L 139.851562 -8.703125 C 114.066406 -8.703125 93.183594 -29.585938 93.183594 -55.214844 C 93.183594 -81 114.066406 -101.882812 139.851562 -101.882812 L 182.886719 -101.882812 C 185.417969 -101.882812 187.316406 -103.78125 187.316406 -106.3125 L 187.316406 -110.585938 C 164.851562 -110.585938 152.824219 -110.585938 146.65625 -110.742188 C 143.332031 -110.742188 141.75 -110.742188 140.800781 -110.742188 Z M 140.800781 -110.742188 "/></g></g><g style="fill:rgb(0%,0%,0%);fill-opacity:1;"><g transform="translate(324.772921, 434.906425)"><path style="stroke:none;" d="M 163.265625 -8.703125 L 136.847656 -8.703125 L 136.847656 -8.859375 C 125.613281 -9.492188 115.171875 -14.238281 107.105469 -22.464844 C 98.5625 -31.167969 93.816406 -42.875 93.816406 -55.371094 L 93.816406 -106.15625 C 93.816406 -108.6875 91.757812 -110.742188 89.386719 -110.742188 L 84.480469 -110.742188 L 84.480469 -55.214844 C 84.480469 -25.15625 109.003906 -0.316406 139.21875 0 L 167.699219 0 L 167.699219 -4.273438 C 167.699219 -6.804688 165.800781 -8.703125 163.265625 -8.703125 Z M 163.265625 -8.703125 "/></g></g><g style="fill:rgb(0%,0%,0%);fill-opacity:1;"><g transform="translate(545.781072, 434.906425)"><path style="stroke:none;" d="M 84.480469 -106.15625 L 84.480469 0 L 89.386719 0 C 91.917969 0 93.816406 -1.898438 93.816406 -4.429688 L 93.816406 -110.585938 L 88.753906 -110.585938 C 86.378906 -110.585938 84.480469 -108.6875 84.480469 -106.15625 Z M 84.480469 -106.15625 "/></g></g><g style="fill:rgb(0%,0%,0%);fill-opacity:1;"><g transform="translate(735.773924, 434.906425)"><path style="stroke:none;" d="M 134.472656 -104.097656 L 95.398438 -62.808594 L 56.320312 -104.097656 C 52.367188 -108.210938 46.828125 -110.585938 41.132812 -110.585938 L 31.484375 -110.585938 L 31.484375 -104.574219 L 65.972656 -68.1875 C 86.695312 -46.195312 86.695312 -46.195312 87.804688 -46.195312 L 95.082031 -46.195312 C 100.777344 -46.195312 106.3125 -48.570312 110.269531 -52.839844 L 140.328125 -84.640625 L 140.328125 -9.335938 C 140.328125 -4.113281 144.597656 0 149.820312 0 L 159.152344 0 L 159.3125 -110.109375 L 159.3125 -110.585938 L 149.660156 -110.585938 C 143.964844 -110.585938 138.429688 -108.210938 134.472656 -104.097656 Z M 134.472656 -104.097656 "/></g></g><g style="fill:rgb(0%,0%,0%);fill-opacity:1;"><g transform="translate(967.067613, 434.906425)"><path style="stroke:none;" d="M 67.871094 -110.585938 L 58.535156 -110.585938 L 58.535156 -9.335938 C 58.535156 -4.113281 62.648438 0 67.871094 0 L 77.203125 0 L 77.203125 -101.25 C 77.203125 -106.472656 72.933594 -110.585938 67.871094 -110.585938 Z M 67.871094 -110.585938 "/></g></g><g style="fill:rgb(0%,0%,0%);fill-opacity:1;"><g transform="translate(1117.677715, 434.906425)"><path style="stroke:none;" d="M 149.503906 -110.585938 L 58.535156 -110.585938 L 58.535156 -101.882812 C 58.535156 -96.664062 62.648438 -92.550781 67.871094 -92.550781 L 158.835938 -92.550781 L 158.835938 -101.25 C 158.835938 -106.472656 154.566406 -110.585938 149.503906 -110.585938 Z M 108.6875 -71.035156 L 99.351562 -71.035156 L 99.351562 -9.335938 C 99.351562 -4.113281 103.464844 0 108.6875 0 L 118.019531 0 L 118.019531 -61.699219 C 118.019531 -66.761719 113.75 -71.035156 108.6875 -71.035156 Z M 108.6875 -71.035156 "/></g></g></g></svg>