<?xml version="1.0" encoding="UTF-8"?><svg xmlns="http://www.w3.org/2000/svg" xmlns:xlink="http://www.w3.org/1999/xlink" contentScriptType="text/ecmascript" width="810" zoomAndPan="magnify" contentStyleType="text/css" viewBox="0 0 810 809.999993" height="809.999993" preserveAspectRatio="xMidYMid meet" version="1.0"><defs><clipPath id="clip-0"><path d="M 237 178.089844 L 571 178.089844 L 571 501 L 237 501 Z M 237 178.089844 " clip-rule="nonzero"/></clipPath><clipPath id="clip-1"><path d="M 166.460938 524 L 641.660156 524 L 641.660156 573 L 166.460938 573 Z M 166.460938 524 " clip-rule="nonzero"/></clipPath><clipPath id="clip-2"><path d="M 166.460938 584 L 641.660156 584 L 641.660156 631.6875 L 166.460938 631.6875 Z M 166.460938 584 " clip-rule="nonzero"/></clipPath></defs><g clip-path="url(#clip-0)"><path fill="rgb(4.708862%, 65.098572%, 100%)" d="M 249.753906 500.632812 C 250.535156 500.632812 251.304688 500.558594 252.070312 500.40625 C 252.835938 500.253906 253.578125 500.027344 254.296875 499.726562 C 255.019531 499.429688 255.703125 499.0625 256.351562 498.625 C 257 498.191406 257.597656 497.699219 258.148438 497.144531 C 258.703125 496.589844 259.195312 495.988281 259.625 495.339844 C 260.058594 494.6875 260.425781 494.003906 260.722656 493.28125 C 261.023438 492.558594 261.246094 491.8125 261.398438 491.042969 C 261.550781 490.277344 261.628906 489.503906 261.628906 488.71875 L 261.628906 315.859375 L 404.113281 205.925781 L 546.597656 315.859375 L 546.597656 488.71875 C 546.597656 489.503906 546.675781 490.277344 546.828125 491.042969 C 546.980469 491.8125 547.203125 492.558594 547.503906 493.28125 C 547.800781 494.003906 548.167969 494.6875 548.601562 495.339844 C 549.035156 495.988281 549.527344 496.589844 550.078125 497.144531 C 550.628906 497.699219 551.226562 498.191406 551.875 498.625 C 552.523438 499.0625 553.210938 499.429688 553.929688 499.726562 C 554.648438 500.027344 555.390625 500.253906 556.15625 500.40625 C 556.921875 500.558594 557.695312 500.632812 558.472656 500.632812 C 559.253906 500.632812 560.023438 500.558594 560.789062 500.40625 C 561.554688 500.253906 562.296875 500.027344 563.015625 499.726562 C 563.738281 499.429688 564.421875 499.0625 565.070312 498.625 C 565.71875 498.191406 566.316406 497.699219 566.871094 497.144531 C 567.421875 496.589844 567.914062 495.988281 568.347656 495.339844 C 568.777344 494.6875 569.144531 494.003906 569.441406 493.28125 C 569.742188 492.558594 569.96875 491.8125 570.117188 491.042969 C 570.269531 490.277344 570.347656 489.503906 570.347656 488.71875 L 570.347656 310.007812 C 570.34375 309.097656 570.242188 308.199219 570.03125 307.3125 C 569.824219 306.425781 569.519531 305.574219 569.117188 304.757812 C 568.714844 303.941406 568.226562 303.179688 567.648438 302.476562 C 567.074219 301.769531 566.425781 301.140625 565.707031 300.585938 L 411.347656 181.445312 C 410.835938 181.039062 410.292969 180.679688 409.722656 180.367188 C 409.152344 180.050781 408.558594 179.785156 407.941406 179.570312 C 407.328125 179.355469 406.699219 179.195312 406.054688 179.085938 C 405.414062 178.976562 404.765625 178.921875 404.113281 178.921875 C 403.460938 178.921875 402.816406 178.976562 402.171875 179.085938 C 401.53125 179.195312 400.902344 179.355469 400.285156 179.570312 C 399.667969 179.785156 399.078125 180.050781 398.503906 180.367188 C 397.933594 180.679688 397.394531 181.039062 396.882812 181.445312 L 242.523438 300.585938 C 241.800781 301.140625 241.152344 301.769531 240.578125 302.476562 C 240 303.179688 239.511719 303.941406 239.109375 304.757812 C 238.707031 305.574219 238.402344 306.425781 238.195312 307.3125 C 237.988281 308.199219 237.882812 309.097656 237.878906 310.007812 L 237.878906 488.71875 C 237.878906 489.503906 237.957031 490.277344 238.109375 491.042969 C 238.261719 491.8125 238.484375 492.558594 238.785156 493.28125 C 239.082031 494.003906 239.449219 494.6875 239.882812 495.339844 C 240.316406 495.988281 240.808594 496.589844 241.359375 497.144531 C 241.910156 497.699219 242.507812 498.191406 243.15625 498.625 C 243.804688 499.0625 244.488281 499.429688 245.210938 499.726562 C 245.929688 500.027344 246.671875 500.253906 247.4375 500.40625 C 248.203125 500.558594 248.972656 500.632812 249.753906 500.632812 Z M 249.753906 500.632812 " fill-opacity="1" fill-rule="nonzero"/></g><g clip-path="url(#clip-1)"><path fill="rgb(4.708862%, 65.098572%, 100%)" d="M 178.511719 572.117188 C 209.273438 572.117188 227.195312 562.695312 240.363281 555.765625 C 248.675781 551.429688 254.71875 548.289062 261.628906 548.289062 C 270.695312 548.289062 281.058594 553.488281 291.960938 558.90625 C 304.804688 565.402344 318.191406 572.117188 332.871094 572.117188 C 347.550781 572.117188 356.941406 566.160156 366.875 560.421875 C 376.804688 554.679688 387.707031 548.289062 404.113281 548.289062 C 420.519531 548.289062 430.667969 554.140625 441.355469 560.421875 C 452.039062 566.703125 461.539062 572.117188 475.355469 572.117188 C 489.171875 572.117188 503.421875 565.402344 516.265625 558.90625 C 527.167969 553.488281 537.53125 548.289062 546.597656 548.289062 C 553.507812 548.289062 559.554688 551.429688 567.863281 555.765625 C 581.035156 562.695312 598.953125 572.117188 629.714844 572.117188 C 630.496094 572.117188 631.269531 572.042969 632.03125 571.890625 C 632.796875 571.738281 633.539062 571.511719 634.261719 571.210938 C 634.980469 570.914062 635.664062 570.546875 636.3125 570.109375 C 636.960938 569.675781 637.5625 569.183594 638.113281 568.628906 C 638.664062 568.074219 639.15625 567.472656 639.589844 566.824219 C 640.023438 566.171875 640.386719 565.488281 640.6875 564.765625 C 640.984375 564.042969 641.210938 563.296875 641.363281 562.527344 C 641.515625 561.761719 641.589844 560.988281 641.589844 560.203125 C 641.589844 559.421875 641.515625 558.648438 641.363281 557.878906 C 641.210938 557.113281 640.984375 556.367188 640.6875 555.644531 C 640.386719 554.921875 640.023438 554.234375 639.589844 553.585938 C 639.15625 552.933594 638.664062 552.332031 638.113281 551.78125 C 637.5625 551.226562 636.960938 550.734375 636.3125 550.296875 C 635.664062 549.863281 634.980469 549.496094 634.261719 549.195312 C 633.539062 548.898438 632.796875 548.671875 632.03125 548.519531 C 631.269531 548.367188 630.496094 548.289062 629.714844 548.289062 C 604.78125 548.289062 591.074219 541.035156 578.875 534.644531 C 569.269531 529.660156 559.335938 524.460938 546.597656 524.460938 C 531.917969 524.460938 518.535156 531.175781 505.6875 537.675781 C 494.785156 543.089844 484.425781 548.289062 475.355469 548.289062 C 467.910156 548.289062 461.433594 544.5 453.226562 539.734375 C 441.570312 532.910156 426.890625 524.460938 404.113281 524.460938 C 381.335938 524.460938 366.65625 532.910156 355 539.734375 C 346.796875 544.5 340.320312 548.289062 332.871094 548.289062 C 325.421875 548.289062 313.441406 543.089844 302.539062 537.675781 C 289.691406 531.175781 276.308594 524.460938 261.628906 524.460938 C 248.890625 524.460938 238.960938 529.660156 229.351562 534.644531 C 217.15625 541.035156 203.445312 548.289062 178.511719 548.289062 C 177.730469 548.289062 176.960938 548.367188 176.195312 548.519531 C 175.429688 548.671875 174.6875 548.898438 173.96875 549.195312 C 173.246094 549.496094 172.5625 549.863281 171.914062 550.296875 C 171.265625 550.734375 170.667969 551.226562 170.113281 551.78125 C 169.5625 552.332031 169.070312 552.933594 168.636719 553.585938 C 168.207031 554.234375 167.839844 554.921875 167.542969 555.644531 C 167.242188 556.367188 167.019531 557.113281 166.867188 557.878906 C 166.714844 558.648438 166.636719 559.421875 166.636719 560.203125 C 166.636719 560.988281 166.714844 561.761719 166.867188 562.527344 C 167.019531 563.296875 167.242188 564.042969 167.542969 564.765625 C 167.839844 565.488281 168.207031 566.171875 168.636719 566.824219 C 169.070312 567.472656 169.5625 568.074219 170.113281 568.628906 C 170.667969 569.183594 171.265625 569.675781 171.914062 570.109375 C 172.5625 570.546875 173.246094 570.914062 173.96875 571.210938 C 174.6875 571.511719 175.429688 571.738281 176.195312 571.890625 C 176.960938 572.042969 177.730469 572.117188 178.511719 572.117188 Z M 178.511719 572.117188 " fill-opacity="1" fill-rule="nonzero"/></g><g clip-path="url(#clip-2)"><path fill="rgb(4.708862%, 65.098572%, 100%)" d="M 629.714844 607.859375 C 604.78125 607.859375 591.074219 600.605469 578.875 594.214844 C 569.269531 589.230469 559.335938 584.03125 546.597656 584.03125 C 531.917969 584.03125 518.535156 590.746094 505.6875 597.246094 C 494.785156 602.660156 484.425781 607.859375 475.355469 607.859375 C 467.910156 607.859375 461.433594 604.070312 453.226562 599.304688 C 441.570312 592.480469 426.890625 584.03125 404.113281 584.03125 C 381.335938 584.03125 366.65625 592.480469 355 599.304688 C 346.796875 604.070312 340.320312 607.859375 332.871094 607.859375 C 325.421875 607.859375 313.441406 602.660156 302.539062 597.246094 C 289.691406 590.746094 276.308594 584.03125 261.628906 584.03125 C 248.890625 584.03125 238.960938 589.230469 229.351562 594.214844 C 217.15625 600.605469 203.445312 607.859375 178.511719 607.859375 C 177.730469 607.859375 176.960938 607.9375 176.195312 608.089844 C 175.429688 608.242188 174.6875 608.46875 173.96875 608.765625 C 173.246094 609.066406 172.5625 609.433594 171.914062 609.867188 C 171.265625 610.304688 170.667969 610.796875 170.113281 611.351562 C 169.5625 611.902344 169.070312 612.503906 168.636719 613.15625 C 168.207031 613.804688 167.839844 614.492188 167.542969 615.214844 C 167.242188 615.9375 167.019531 616.683594 166.867188 617.449219 C 166.714844 618.21875 166.636719 618.992188 166.636719 619.773438 C 166.636719 620.558594 166.714844 621.332031 166.867188 622.097656 C 167.019531 622.867188 167.242188 623.609375 167.542969 624.332031 C 167.839844 625.054688 168.207031 625.742188 168.636719 626.394531 C 169.070312 627.042969 169.5625 627.644531 170.113281 628.199219 C 170.667969 628.753906 171.265625 629.246094 171.914062 629.679688 C 172.5625 630.117188 173.246094 630.480469 173.96875 630.78125 C 174.6875 631.082031 175.429688 631.308594 176.195312 631.460938 C 176.960938 631.613281 177.730469 631.6875 178.511719 631.6875 C 209.273438 631.6875 227.195312 622.265625 240.363281 615.332031 C 248.675781 611 254.71875 607.859375 261.628906 607.859375 C 270.695312 607.859375 281.058594 613.058594 291.960938 618.476562 C 304.804688 624.972656 318.191406 631.6875 332.871094 631.6875 C 347.550781 631.6875 356.941406 625.730469 366.875 619.992188 C 376.804688 614.25 387.707031 607.859375 404.113281 607.859375 C 420.519531 607.859375 430.667969 613.710938 441.355469 619.992188 C 452.039062 626.273438 461.539062 631.6875 475.355469 631.6875 C 489.171875 631.6875 503.421875 624.972656 516.265625 618.476562 C 527.167969 613.058594 537.53125 607.859375 546.597656 607.859375 C 553.507812 607.859375 559.554688 611 567.863281 615.332031 C 581.035156 622.265625 598.953125 631.6875 629.714844 631.6875 C 630.496094 631.6875 631.269531 631.613281 632.03125 631.460938 C 632.796875 631.308594 633.539062 631.082031 634.261719 630.78125 C 634.980469 630.480469 635.664062 630.117188 636.3125 629.679688 C 636.960938 629.246094 637.5625 628.753906 638.113281 628.199219 C 638.664062 627.644531 639.15625 627.042969 639.589844 626.394531 C 640.023438 625.742188 640.386719 625.054688 640.6875 624.332031 C 640.984375 623.609375 641.210938 622.867188 641.363281 622.097656 C 641.515625 621.332031 641.589844 620.558594 641.589844 619.773438 C 641.589844 618.992188 641.515625 618.21875 641.363281 617.449219 C 641.210938 616.683594 640.984375 615.9375 640.6875 615.214844 C 640.386719 614.492188 640.023438 613.804688 639.589844 613.15625 C 639.15625 612.503906 638.664062 611.902344 638.113281 611.351562 C 637.5625 610.796875 636.960938 610.304688 636.3125 609.867188 C 635.664062 609.433594 634.980469 609.066406 634.261719 608.765625 C 633.539062 608.46875 632.796875 608.242188 632.03125 608.089844 C 631.269531 607.9375 630.496094 607.859375 629.714844 607.859375 Z M 629.714844 607.859375 " fill-opacity="1" fill-rule="nonzero"/></g><path fill="rgb(4.708862%, 65.098572%, 100%)" d="M 463.484375 500.632812 C 464.261719 500.632812 465.035156 500.558594 465.800781 500.40625 C 466.5625 500.253906 467.304688 500.027344 468.027344 499.726562 C 468.746094 499.429688 469.429688 499.0625 470.078125 498.625 C 470.726562 498.191406 471.328125 497.699219 471.878906 497.144531 C 472.429688 496.589844 472.921875 495.988281 473.355469 495.339844 C 473.789062 494.6875 474.15625 494.003906 474.453125 493.28125 C 474.75 492.558594 474.976562 491.8125 475.128906 491.042969 C 475.28125 490.277344 475.355469 489.503906 475.355469 488.71875 L 475.355469 357.664062 C 475.355469 356.882812 475.28125 356.109375 475.128906 355.339844 C 474.976562 354.574219 474.75 353.828125 474.453125 353.105469 C 474.15625 352.382812 473.789062 351.695312 473.355469 351.046875 C 472.921875 350.394531 472.429688 349.792969 471.878906 349.242188 C 471.328125 348.6875 470.726562 348.195312 470.078125 347.757812 C 469.429688 347.324219 468.746094 346.957031 468.027344 346.660156 C 467.304688 346.359375 466.5625 346.132812 465.800781 345.980469 C 465.035156 345.828125 464.261719 345.75 463.484375 345.75 L 344.746094 345.75 C 343.964844 345.75 343.191406 345.828125 342.429688 345.980469 C 341.664062 346.132812 340.921875 346.359375 340.199219 346.660156 C 339.480469 346.957031 338.796875 347.324219 338.148438 347.757812 C 337.5 348.195312 336.898438 348.6875 336.347656 349.242188 C 335.796875 349.792969 335.304688 350.394531 334.871094 351.046875 C 334.4375 351.695312 334.074219 352.382812 333.773438 353.105469 C 333.476562 353.828125 333.25 354.574219 333.097656 355.339844 C 332.945312 356.109375 332.871094 356.882812 332.871094 357.664062 L 332.871094 488.71875 C 332.871094 489.503906 332.945312 490.277344 333.097656 491.042969 C 333.25 491.8125 333.476562 492.558594 333.773438 493.28125 C 334.074219 494.003906 334.4375 494.6875 334.871094 495.339844 C 335.304688 495.988281 335.796875 496.589844 336.347656 497.144531 C 336.898438 497.699219 337.5 498.191406 338.148438 498.625 C 338.796875 499.0625 339.480469 499.429688 340.199219 499.726562 C 340.921875 500.027344 341.664062 500.253906 342.429688 500.40625 C 343.191406 500.558594 343.964844 500.632812 344.746094 500.632812 C 345.523438 500.632812 346.296875 500.558594 347.0625 500.40625 C 347.824219 500.253906 348.566406 500.027344 349.289062 499.726562 C 350.007812 499.429688 350.691406 499.0625 351.339844 498.625 C 351.988281 498.191406 352.589844 497.699219 353.140625 497.144531 C 353.691406 496.589844 354.183594 495.988281 354.617188 495.339844 C 355.050781 494.6875 355.417969 494.003906 355.714844 493.28125 C 356.011719 492.558594 356.238281 491.8125 356.390625 491.042969 C 356.542969 490.277344 356.617188 489.503906 356.617188 488.71875 L 356.617188 369.578125 L 451.609375 369.578125 L 451.609375 488.71875 C 451.609375 489.503906 451.683594 490.277344 451.835938 491.042969 C 451.988281 491.8125 452.214844 492.558594 452.511719 493.28125 C 452.8125 494.003906 453.175781 494.6875 453.609375 495.339844 C 454.042969 495.988281 454.535156 496.589844 455.085938 497.144531 C 455.636719 497.699219 456.238281 498.191406 456.886719 498.625 C 457.535156 499.0625 458.21875 499.429688 458.9375 499.726562 C 459.660156 500.027344 460.402344 500.253906 461.167969 500.40625 C 461.929688 500.558594 462.703125 500.632812 463.484375 500.632812 Z M 463.484375 500.632812 " fill-opacity="1" fill-rule="nonzero"/><path fill="rgb(4.708862%, 65.098572%, 100%)" d="M 81 81 L 81 729 L 729 729 L 729 81 Z M 697.210938 697.210938 L 112.128906 697.210938 L 112.128906 112.128906 L 697.210938 112.128906 Z M 697.210938 697.210938 " fill-opacity="1" fill-rule="nonzero"/></svg>