<svg xmlns="http://www.w3.org/2000/svg" xmlns:xlink="http://www.w3.org/1999/xlink" zoomAndPan="magnify" preserveAspectRatio="xMidYMid meet" version="1.2" viewBox="168.81 323.61 1107.7 110.91"><defs><g/></defs><g xml:id="surface1" id="surface1"><g style="fill:rgb(100%,100%,100%);fill-opacity:1;"><g transform="translate(84.330285, 434.357452)"><path style="stroke:none;" d="M 140.804688 -110.746094 L 139.855469 -110.746094 C 109.320312 -110.746094 84.480469 -85.90625 84.480469 -55.214844 C 84.480469 -24.679688 109.320312 0.160156 139.855469 0.160156 L 140.804688 0.160156 C 141.753906 0.160156 143.335938 0.160156 146.65625 0.160156 C 152.828125 0.160156 164.851562 0 187.316406 0 L 187.316406 -4.273438 C 187.316406 -6.804688 185.417969 -8.703125 182.886719 -8.703125 L 139.855469 -8.703125 C 114.066406 -8.703125 93.183594 -29.585938 93.183594 -55.214844 C 93.183594 -81 114.066406 -101.886719 139.855469 -101.886719 L 182.886719 -101.886719 C 185.417969 -101.886719 187.316406 -103.785156 187.316406 -106.316406 L 187.316406 -110.585938 C 164.851562 -110.585938 152.828125 -110.585938 146.65625 -110.746094 C 143.335938 -110.746094 141.753906 -110.746094 140.804688 -110.746094 Z M 140.804688 -110.746094 "/></g></g><g style="fill:rgb(100%,100%,100%);fill-opacity:1;"><g transform="translate(324.778145, 434.357452)"><path style="stroke:none;" d="M 163.269531 -8.703125 L 136.847656 -8.703125 L 136.847656 -8.859375 C 125.617188 -9.492188 115.175781 -14.238281 107.105469 -22.464844 C 98.5625 -31.167969 93.816406 -42.875 93.816406 -55.371094 L 93.816406 -106.15625 C 93.816406 -108.6875 91.757812 -110.746094 89.386719 -110.746094 L 84.480469 -110.746094 L 84.480469 -55.214844 C 84.480469 -25.15625 109.003906 -0.316406 139.222656 0 L 167.699219 0 L 167.699219 -4.273438 C 167.699219 -6.804688 165.800781 -8.703125 163.269531 -8.703125 Z M 163.269531 -8.703125 "/></g></g><g style="fill:rgb(100%,100%,100%);fill-opacity:1;"><g transform="translate(545.768405, 434.357452)"><path style="stroke:none;" d="M 84.480469 -106.15625 L 84.480469 0 L 89.386719 0 C 91.917969 0 93.816406 -1.898438 93.816406 -4.429688 L 93.816406 -110.585938 L 88.753906 -110.585938 C 86.378906 -110.585938 84.480469 -108.6875 84.480469 -106.15625 Z M 84.480469 -106.15625 "/></g></g><g style="fill:rgb(100%,100%,100%);fill-opacity:1;"><g transform="translate(735.788928, 434.357452)"><path style="stroke:none;" d="M 134.476562 -104.101562 L 95.398438 -62.808594 L 56.320312 -104.101562 C 52.367188 -108.214844 46.828125 -110.585938 41.132812 -110.585938 L 31.484375 -110.585938 L 31.484375 -104.574219 L 65.972656 -68.1875 C 86.695312 -46.195312 86.695312 -46.195312 87.804688 -46.195312 L 95.082031 -46.195312 C 100.777344 -46.195312 106.316406 -48.570312 110.269531 -52.839844 L 140.328125 -84.640625 L 140.328125 -9.335938 C 140.328125 -4.113281 144.601562 0 149.820312 0 L 159.15625 0 L 159.3125 -110.113281 L 159.3125 -110.585938 L 149.664062 -110.585938 C 143.96875 -110.585938 138.429688 -108.214844 134.476562 -104.101562 Z M 134.476562 -104.101562 "/></g></g><g style="fill:rgb(100%,100%,100%);fill-opacity:1;"><g transform="translate(967.067238, 434.357452)"><path style="stroke:none;" d="M 67.871094 -110.585938 L 58.535156 -110.585938 L 58.535156 -9.335938 C 58.535156 -4.113281 62.648438 0 67.871094 0 L 77.203125 0 L 77.203125 -101.253906 C 77.203125 -106.472656 72.933594 -110.585938 67.871094 -110.585938 Z M 67.871094 -110.585938 "/></g></g><g style="fill:rgb(100%,100%,100%);fill-opacity:1;"><g transform="translate(1117.66768, 434.357452)"><path style="stroke:none;" d="M 149.503906 -110.585938 L 58.535156 -110.585938 L 58.535156 -101.886719 C 58.535156 -96.664062 62.648438 -92.550781 67.871094 -92.550781 L 158.839844 -92.550781 L 158.839844 -101.253906 C 158.839844 -106.472656 154.566406 -110.585938 149.503906 -110.585938 Z M 108.6875 -71.035156 L 99.355469 -71.035156 L 99.355469 -9.335938 C 99.355469 -4.113281 103.46875 0 108.6875 0 L 118.023438 0 L 118.023438 -61.699219 C 118.023438 -66.761719 113.75 -71.035156 108.6875 -71.035156 Z M 108.6875 -71.035156 "/></g></g></g></svg>