<?xml version="1.0" encoding="UTF-8"?><svg xmlns="http://www.w3.org/2000/svg" xmlns:xlink="http://www.w3.org/1999/xlink" contentScriptType="text/ecmascript" width="810" zoomAndPan="magnify" contentStyleType="text/css" viewBox="0 0 810 809.999993" height="809.999993" preserveAspectRatio="xMidYMid meet" version="1.0"><defs><clipPath id="clip-0"><path d="M 142.023438 444 L 669.0625 444 L 669.0625 631.78125 L 142.023438 631.78125 Z M 142.023438 444 " clip-rule="nonzero"/></clipPath></defs><path fill="rgb(100%, 96.078491%, 4.708862%)" d="M 81 81 L 81 729 L 729 729 L 729 81 Z M 697.210938 697.210938 L 112.128906 697.210938 L 112.128906 112.128906 L 697.210938 112.128906 Z M 697.210938 697.210938 " fill-opacity="1" fill-rule="nonzero"/><path fill="rgb(100%, 96.078491%, 4.708862%)" d="M 512.109375 219.59375 C 508.878906 199.320312 490.160156 178.316406 461.820312 179.746094 C 432.476562 181.074219 420.058594 197.179688 413.28125 209.179688 C 410.761719 213.644531 408.699219 218.734375 407.011719 224.136719 C 405.214844 222.011719 403.15625 220.046875 400.777344 218.332031 C 391.054688 211.320312 373.488281 209.71875 358.097656 214.441406 C 341.15625 219.628906 328.535156 231.472656 322.566406 247.804688 C 320.789062 252.648438 323.292969 258.011719 328.15625 259.78125 C 332.988281 261.539062 338.390625 259.0625 340.160156 254.199219 C 345.171875 240.503906 355.667969 234.726562 363.589844 232.300781 C 375.371094 228.695312 386.195312 230.878906 389.808594 233.484375 C 399.78125 240.664062 400.199219 260.46875 399.519531 267.464844 C 399.492188 267.777344 399.472656 268.089844 399.472656 268.40625 L 399.472656 448.492188 C 399.472656 453.652344 403.671875 457.835938 408.835938 457.835938 C 414.011719 457.835938 418.199219 453.652344 418.199219 448.492188 L 418.199219 293.523438 C 418.375 292.75 418.457031 291.9375 418.417969 291.109375 C 417.800781 277.46875 418.605469 237.816406 429.597656 218.359375 C 435.152344 208.527344 443.003906 199.304688 462.671875 198.410156 C 482.113281 197.589844 492.058594 212.730469 493.613281 222.527344 C 494.421875 227.617188 499.175781 231.089844 504.328125 230.289062 C 509.4375 229.476562 512.921875 224.691406 512.109375 219.59375 " fill-opacity="1" fill-rule="nonzero"/><path fill="rgb(100%, 96.078491%, 4.708862%)" d="M 332.386719 316.433594 C 321.957031 337.699219 296.261719 347.222656 283.996094 350.671875 C 278.875 339.058594 269.984375 313.328125 279.855469 291.707031 C 286.1875 277.824219 299.589844 267.578125 319.753906 261.117188 L 300.589844 302.183594 C 299.128906 305.300781 300.484375 309.003906 303.613281 310.457031 C 304.46875 310.851562 305.363281 311.042969 306.238281 311.042969 C 308.59375 311.042969 310.847656 309.710938 311.902344 307.441406 L 330.925781 266.691406 C 338.542969 286.152344 339.054688 302.84375 332.386719 316.433594 Z M 340.949219 243.773438 C 339 240.109375 334.914062 238.128906 330.789062 238.976562 C 296.078125 246.046875 273.210938 261.179688 262.804688 283.960938 C 245.765625 321.320312 269.691406 364.300781 270.722656 366.105469 C 272.402344 369.074219 275.535156 370.847656 278.875 370.847656 C 279.398438 370.847656 279.933594 370.804688 280.472656 370.707031 C 282.519531 370.355469 331.011719 361.585938 349.160156 324.75 C 360.230469 302.292969 357.460938 275.046875 340.949219 243.773438 " fill-opacity="1" fill-rule="nonzero"/><path fill="rgb(100%, 96.078491%, 4.708862%)" d="M 534.882812 331.878906 L 526.222656 276.945312 C 525.679688 273.542969 522.480469 271.234375 519.085938 271.753906 C 515.675781 272.289062 513.351562 275.476562 513.882812 278.875 L 523.132812 337.554688 C 511.082031 330.28125 493.75 316.808594 488.863281 297.367188 C 484.695312 280.765625 490.3125 262.1875 505.574219 242.066406 C 528.265625 253.210938 541.648438 267.292969 545.382812 284 C 549.367188 301.808594 541.910156 319.820312 534.882812 331.878906 Z M 563.683594 280.035156 C 558.265625 255.601562 539.046875 236.046875 506.566406 221.933594 C 502.746094 220.28125 498.300781 221.328125 495.636719 224.519531 C 472.957031 251.6875 464.578125 277.753906 470.722656 302.027344 C 480.808594 341.820312 526.398438 360.460938 528.339844 361.234375 C 529.46875 361.683594 530.648438 361.898438 531.820312 361.898438 C 534.449219 361.898438 537.023438 360.796875 538.832031 358.753906 C 540.214844 357.195312 572.578125 320.117188 563.683594 280.035156 " fill-opacity="1" fill-rule="nonzero"/><g clip-path="url(#clip-0)"><path fill="rgb(100%, 96.078491%, 4.708862%)" d="M 598.972656 511.304688 L 455.570312 530.550781 L 395.683594 463.210938 L 576.761719 463.210938 Z M 278.878906 557.117188 L 216.140625 511.484375 L 242.839844 463.210938 L 378.988281 463.210938 L 404.464844 491.855469 Z M 659.753906 444.523438 L 162.175781 444.523438 C 157.007812 444.523438 152.8125 448.710938 152.8125 453.867188 C 152.8125 459.027344 157.007812 463.210938 162.175781 463.210938 L 228.574219 463.210938 L 204.019531 507.605469 L 147.761719 516.480469 C 144.359375 517.015625 142.027344 520.199219 142.570312 523.601562 C 143.050781 526.667969 145.707031 528.859375 148.726562 528.859375 C 149.050781 528.859375 149.382812 528.832031 149.707031 528.777344 L 206.425781 519.839844 L 266.511719 563.539062 L 188.046875 604.3125 C 184.984375 605.902344 183.800781 609.660156 185.390625 612.714844 C 186.503906 614.847656 188.683594 616.066406 190.9375 616.066406 C 191.902344 616.066406 192.890625 615.839844 193.8125 615.363281 L 281.058594 570.03125 C 281.113281 570.003906 281.160156 569.96875 281.214844 569.941406 L 413.003906 501.464844 L 445.703125 538.230469 L 405.878906 622.757812 C 404.414062 625.871094 405.753906 629.585938 408.867188 631.050781 C 409.730469 631.453125 410.628906 631.640625 411.523438 631.640625 C 413.867188 631.640625 416.109375 630.320312 417.183594 628.0625 L 457.3125 542.890625 L 604.4375 523.140625 L 645.683594 612.449219 C 646.734375 614.722656 648.988281 616.066406 651.355469 616.066406 C 652.226562 616.066406 653.117188 615.882812 653.960938 615.496094 C 657.09375 614.054688 658.464844 610.359375 657.019531 607.230469 L 590.515625 463.210938 L 659.753906 463.210938 C 664.925781 463.210938 669.121094 459.027344 669.121094 453.867188 C 669.121094 448.710938 664.925781 444.523438 659.753906 444.523438 " fill-opacity="1" fill-rule="nonzero"/></g></svg>