<?xml version="1.0" encoding="UTF-8"?><svg xmlns="http://www.w3.org/2000/svg" xmlns:xlink="http://www.w3.org/1999/xlink" contentScriptType="text/ecmascript" width="810" zoomAndPan="magnify" contentStyleType="text/css" viewBox="0 0 810 809.999993" height="809.999993" preserveAspectRatio="xMidYMid meet" version="1.0"><defs><clipPath id="clip-0"><path d="M 248 182 L 561.625 182 L 561.625 630.710938 L 248 630.710938 Z M 248 182 " clip-rule="nonzero"/></clipPath></defs><g clip-path="url(#clip-0)"><path fill="rgb(100%, 4.708862%, 4.708862%)" d="M 495.972656 587.183594 C 494.9375 587.921875 493.910156 588.636719 492.875 589.332031 C 498.832031 576.789062 502.746094 561.269531 501.398438 542.738281 C 499.835938 521.269531 492.34375 508.015625 484.40625 493.984375 C 476.679688 480.316406 467.914062 464.824219 462.613281 437.023438 C 461.953125 433.558594 459.699219 430.628906 456.546875 429.128906 C 453.394531 427.628906 449.722656 427.746094 446.664062 429.441406 C 430.691406 438.300781 418.148438 456.679688 411.75 474.8125 C 383.40625 427.304688 386.441406 378.984375 387.5 368.644531 C 387.910156 364.597656 386.089844 360.652344 382.757812 358.371094 C 379.417969 356.09375 375.117188 355.855469 371.558594 357.757812 C 353.984375 367.140625 323.621094 410.917969 314.707031 465.539062 C 308.839844 501.496094 310.5625 552.566406 346.394531 603.433594 C 326.21875 595.628906 307.550781 579.480469 293.628906 557.078125 C 263.488281 508.578125 261.683594 445.589844 288.792969 388.589844 C 328.800781 304.515625 369.984375 248.648438 392.597656 221.140625 C 392.65625 223.863281 392.707031 226.617188 392.753906 229.402344 C 393.570312 274.460938 394.417969 321.054688 419.808594 357.105469 C 422.585938 361.050781 427.589844 362.699219 432.132812 361.164062 C 436.679688 359.636719 439.707031 355.28125 439.589844 350.4375 C 438.949219 323.761719 440.96875 301.429688 450.925781 283.808594 C 456.871094 330.042969 477.429688 360.976562 497.414062 391.042969 C 519.167969 423.769531 539.710938 454.675781 539.710938 504.679688 C 539.710938 538.695312 524.996094 566.453125 495.972656 587.183594 Z M 515.515625 378.738281 C 492.636719 344.320312 471.03125 311.8125 471.03125 256.394531 C 471.03125 252.15625 468.628906 248.292969 464.855469 246.457031 C 461.078125 244.621094 456.59375 245.128906 453.320312 247.773438 C 434.152344 263.253906 424.941406 282.941406 420.777344 304.21875 C 415.496094 280.777344 415.027344 254.621094 414.558594 229 C 414.339844 216.910156 414.113281 204.40625 413.355469 192.605469 C 413.082031 188.292969 410.339844 184.542969 406.347656 183.007812 C 402.351562 181.472656 397.839844 182.441406 394.808594 185.480469 C 392.1875 188.097656 330.011719 251.101562 269.144531 379.023438 C 253.546875 411.8125 246.347656 447.363281 248.324219 481.835938 C 250.140625 513.398438 259.417969 543.476562 275.164062 568.816406 C 299.273438 607.613281 336.152344 630.769531 373.820312 630.769531 C 378.179688 630.769531 382.117188 628.144531 383.839844 624.097656 C 385.558594 620.050781 384.738281 615.355469 381.742188 612.15625 C 333.28125 560.390625 330.238281 505.808594 336.222656 469.132812 C 341.429688 437.242188 354.210938 411.378906 365.339844 395.203125 C 367.566406 430.820312 379.96875 473.828125 409.796875 509.910156 C 412.882812 513.636719 418.011719 514.890625 422.433594 512.984375 C 426.855469 511.078125 429.523438 506.472656 429.003906 501.640625 C 427.804688 490.484375 435.007812 471.6875 445.40625 459.078125 C 451.304688 479.882812 459.015625 493.519531 465.476562 504.9375 C 472.722656 517.753906 478.449219 527.878906 479.644531 544.359375 C 482.777344 587.273438 448.636719 609.316406 447.023438 610.332031 C 442.460938 613.164062 440.601562 618.914062 442.628906 623.921875 C 444.335938 628.136719 448.371094 630.773438 452.710938 630.773438 C 453.542969 630.773438 454.378906 630.671875 455.214844 630.476562 C 456.296875 630.21875 482.019531 623.957031 507.910156 605.660156 C 542.980469 580.878906 561.519531 545.957031 561.519531 504.679688 C 561.519531 447.949219 538.132812 412.761719 515.515625 378.738281 " fill-opacity="1" fill-rule="nonzero"/></g><path fill="rgb(100%, 4.708862%, 4.708862%)" d="M 81 81 L 81 729 L 729 729 L 729 81 Z M 697.210938 697.210938 L 112.128906 697.210938 L 112.128906 112.128906 L 697.210938 112.128906 Z M 697.210938 697.210938 " fill-opacity="1" fill-rule="nonzero"/></svg>