<?xml version="1.0" encoding="UTF-8"?><svg xmlns="http://www.w3.org/2000/svg" xmlns:xlink="http://www.w3.org/1999/xlink" contentScriptType="text/ecmascript" width="810" zoomAndPan="magnify" contentStyleType="text/css" viewBox="0 0 810 809.999993" height="809.999993" preserveAspectRatio="xMidYMid meet" version="1.0"><defs><clipPath id="clip-0"><path d="M 178.550781 179 L 632.152344 179 L 632.152344 632 L 178.550781 632 Z M 178.550781 179 " clip-rule="nonzero"/></clipPath></defs><g clip-path="url(#clip-0)"><path fill="rgb(100%, 38.819885%, 4.708862%)" d="M 316.5 179.472656 C 314.765625 179.539062 313.175781 180.054688 311.730469 181.019531 L 256.414062 217.898438 C 255.910156 218.234375 255.441406 218.617188 255.015625 219.042969 C 254.585938 219.472656 254.203125 219.9375 253.867188 220.441406 C 253.53125 220.941406 253.246094 221.472656 253.011719 222.03125 C 252.78125 222.59375 252.605469 223.167969 252.484375 223.761719 C 252.367188 224.355469 252.308594 224.957031 252.308594 225.558594 C 252.304688 226.164062 252.363281 226.765625 252.480469 227.359375 C 252.601562 227.953125 252.773438 228.53125 253.003906 229.089844 C 253.234375 229.648438 253.519531 230.179688 253.855469 230.683594 L 290.734375 286 C 291.238281 286.761719 291.84375 287.429688 292.550781 288.007812 C 293.257812 288.589844 294.03125 289.050781 294.875 289.402344 C 295.714844 289.75 296.589844 289.96875 297.5 290.058594 C 298.410156 290.148438 299.308594 290.105469 300.203125 289.925781 L 346.300781 280.707031 C 347.699219 280.429688 348.960938 279.859375 350.09375 278.996094 C 351.226562 278.132812 352.113281 277.0625 352.75 275.792969 L 380.40625 220.472656 C 380.679688 219.933594 380.894531 219.371094 381.054688 218.785156 C 381.214844 218.203125 381.316406 217.609375 381.359375 217.003906 C 381.402344 216.398438 381.382812 215.796875 381.308594 215.195312 C 381.234375 214.597656 381.097656 214.007812 380.90625 213.433594 C 380.714844 212.859375 380.46875 212.308594 380.171875 211.785156 C 379.871094 211.257812 379.523438 210.765625 379.125 210.308594 C 378.730469 209.851562 378.292969 209.4375 377.8125 209.066406 C 377.335938 208.695312 376.824219 208.375 376.285156 208.101562 L 320.964844 180.445312 C 319.5625 179.738281 318.074219 179.414062 316.5 179.472656 Z M 317.507812 199.335938 L 359.789062 220.472656 L 338.269531 263.511719 L 302.652344 270.640625 L 274.3125 228.128906 Z M 451.949219 217.144531 C 451.128906 217.117188 450.316406 217.203125 449.519531 217.394531 L 410.425781 226.613281 C 409.660156 226.792969 408.929688 227.066406 408.230469 227.433594 C 407.535156 227.796875 406.898438 228.246094 406.316406 228.773438 C 405.734375 229.304688 405.230469 229.898438 404.800781 230.558594 C 404.371094 231.214844 404.03125 231.917969 403.78125 232.664062 L 397.261719 252.21875 C 397.097656 252.714844 396.976562 253.21875 396.898438 253.734375 C 396.816406 254.25 396.78125 254.765625 396.792969 255.289062 C 396.800781 255.808594 396.855469 256.324219 396.949219 256.835938 C 397.046875 257.347656 397.183594 257.847656 397.367188 258.335938 C 397.546875 258.824219 397.769531 259.296875 398.03125 259.746094 C 398.289062 260.195312 398.585938 260.621094 398.921875 261.023438 C 399.253906 261.425781 399.617188 261.792969 400.011719 262.132812 C 400.410156 262.472656 400.832031 262.773438 401.277344 263.042969 L 433.871094 282.597656 C 434.175781 282.78125 434.488281 282.945312 434.8125 283.089844 C 435.136719 283.234375 435.464844 283.363281 435.804688 283.46875 C 436.144531 283.578125 436.488281 283.664062 436.835938 283.734375 C 437.183594 283.800781 437.535156 283.847656 437.886719 283.875 C 438.242188 283.902344 438.597656 283.910156 438.949219 283.898438 C 439.304688 283.882812 439.660156 283.847656 440.007812 283.796875 C 440.359375 283.742188 440.707031 283.667969 441.046875 283.570312 C 441.390625 283.476562 441.726562 283.363281 442.054688 283.230469 C 442.382812 283.097656 442.703125 282.945312 443.015625 282.777344 C 443.328125 282.605469 443.628906 282.417969 443.917969 282.214844 C 444.207031 282.011719 444.484375 281.789062 444.75 281.550781 C 445.015625 281.316406 445.265625 281.066406 445.5 280.800781 C 445.734375 280.535156 445.953125 280.253906 446.15625 279.964844 C 446.359375 279.671875 446.546875 279.371094 446.714844 279.058594 C 446.882812 278.746094 447.035156 278.425781 447.164062 278.097656 C 447.296875 277.765625 447.410156 277.429688 447.5 277.085938 L 460.539062 228.757812 C 460.628906 228.421875 460.699219 228.085938 460.75 227.742188 C 460.804688 227.398438 460.835938 227.054688 460.847656 226.710938 C 460.863281 226.363281 460.855469 226.019531 460.832031 225.675781 C 460.804688 225.328125 460.757812 224.984375 460.695312 224.644531 C 460.632812 224.304688 460.546875 223.96875 460.445312 223.640625 C 460.34375 223.308594 460.222656 222.984375 460.085938 222.667969 C 459.945312 222.351562 459.789062 222.042969 459.617188 221.742188 C 459.445312 221.441406 459.253906 221.152344 459.046875 220.875 C 458.84375 220.597656 458.621094 220.332031 458.386719 220.078125 C 458.152344 219.824219 457.902344 219.585938 457.636719 219.359375 C 457.375 219.132812 457.101562 218.925781 456.816406 218.730469 C 456.527344 218.535156 456.230469 218.359375 455.925781 218.195312 C 455.621094 218.035156 455.304688 217.890625 454.980469 217.765625 C 454.660156 217.640625 454.332031 217.535156 453.996094 217.445312 C 453.664062 217.355469 453.324219 217.285156 452.980469 217.234375 C 452.640625 217.1875 452.292969 217.15625 451.949219 217.144531 Z M 178.550781 230.972656 L 178.550781 371.675781 C 178.40625 372.613281 178.40625 373.550781 178.550781 374.488281 L 178.550781 483.859375 C 178.421875 484.742188 178.421875 485.625 178.550781 486.507812 L 178.550781 631.230469 L 337.929688 631.230469 C 339.386719 631.585938 340.847656 631.585938 342.304688 631.230469 L 517.980469 631.230469 C 519.203125 631.476562 520.429688 631.476562 521.652344 631.230469 L 632.394531 631.230469 L 548.105469 536.40625 C 545.058594 532.972656 541.203125 530.339844 536.867188 528.769531 L 444.835938 495.3125 C 443.199219 494.714844 441.78125 493.675781 440.710938 492.304688 L 384.007812 419.394531 C 379.609375 413.738281 373.191406 410.015625 366.09375 409.007812 L 319.183594 402.308594 C 315.976562 401.847656 313.292969 399.789062 312.015625 396.816406 L 312.015625 396.796875 L 289.832031 345.046875 C 288.449219 341.820312 286.472656 338.894531 283.980469 336.402344 Z M 438.730469 238.878906 L 432.898438 260.503906 L 417.105469 251.03125 L 419.644531 243.378906 Z M 196.988281 275.484375 L 270.945312 349.4375 C 271.769531 350.265625 272.429688 351.25 272.886719 352.320312 L 295.074219 404.070312 C 298.867188 412.933594 307.039062 419.183594 316.574219 420.546875 L 363.480469 427.265625 C 365.839844 427.601562 367.992188 428.835938 369.460938 430.722656 L 426.164062 503.613281 C 429.355469 507.71875 433.640625 510.851562 438.535156 512.636719 L 530.585938 546.109375 C 532.003906 546.625 533.300781 547.492188 534.3125 548.632812 L 534.3125 548.648438 L 591.339844 612.789062 L 523.992188 612.789062 L 486.179688 567.429688 C 480.933594 561.136719 473.140625 557.472656 464.929688 557.472656 L 390.597656 557.472656 C 389.988281 557.464844 389.382812 557.515625 388.78125 557.628906 C 388.179688 557.738281 387.597656 557.910156 387.03125 558.136719 C 386.464844 558.363281 385.925781 558.644531 385.414062 558.980469 C 384.902344 559.316406 384.429688 559.695312 383.996094 560.125 C 383.558594 560.554688 383.171875 561.023438 382.828125 561.527344 C 382.488281 562.035156 382.199219 562.570312 381.960938 563.132812 C 381.726562 563.695312 381.546875 564.277344 381.429688 564.878906 C 381.308594 565.476562 381.246094 566.082031 381.246094 566.691406 C 381.246094 567.304688 381.308594 567.90625 381.429688 568.507812 C 381.546875 569.105469 381.726562 569.6875 381.960938 570.25 C 382.199219 570.8125 382.488281 571.347656 382.828125 571.855469 C 383.171875 572.363281 383.558594 572.828125 383.996094 573.257812 C 384.429688 573.6875 384.902344 574.070312 385.414062 574.402344 C 385.925781 574.738281 386.464844 575.019531 387.03125 575.246094 C 387.597656 575.476562 388.179688 575.644531 388.78125 575.757812 C 389.382812 575.867188 389.988281 575.921875 390.597656 575.910156 L 464.929688 575.910156 C 467.675781 575.910156 470.246094 577.109375 472.007812 579.226562 L 499.992188 612.789062 L 344.070312 612.789062 L 317.472656 582.394531 C 314.597656 579.105469 310.996094 576.542969 306.9375 574.921875 L 272.886719 561.308594 C 272.882812 561.308594 272.875 561.308594 272.871094 561.308594 C 270.347656 560.300781 268.417969 558.25 267.558594 555.671875 L 254.324219 515.949219 L 254.324219 515.929688 C 251.941406 508.769531 246.726562 502.890625 239.898438 499.671875 L 196.988281 479.414062 L 196.988281 384.894531 L 214.1875 389.199219 L 214.1875 389.179688 C 216.804688 389.835938 219 391.601562 220.199219 394.007812 L 244.058594 441.742188 C 244.332031 442.285156 244.652344 442.792969 245.023438 443.273438 C 245.394531 443.75 245.808594 444.1875 246.265625 444.585938 C 246.722656 444.980469 247.214844 445.328125 247.742188 445.628906 C 248.265625 445.929688 248.816406 446.175781 249.390625 446.367188 C 249.964844 446.558594 250.550781 446.691406 251.152344 446.765625 C 251.753906 446.84375 252.355469 446.859375 252.960938 446.816406 C 253.5625 446.773438 254.15625 446.671875 254.742188 446.511719 C 255.324219 446.351562 255.886719 446.136719 256.429688 445.867188 C 256.972656 445.59375 257.480469 445.273438 257.960938 444.902344 C 258.4375 444.53125 258.875 444.117188 259.273438 443.660156 C 259.667969 443.203125 260.015625 442.710938 260.316406 442.183594 C 260.617188 441.660156 260.863281 441.109375 261.054688 440.535156 C 261.246094 439.960938 261.378906 439.371094 261.453125 438.773438 C 261.53125 438.171875 261.546875 437.570312 261.503906 436.964844 C 261.460938 436.359375 261.359375 435.765625 261.199219 435.183594 C 261.039062 434.597656 260.824219 434.035156 260.554688 433.496094 L 236.695312 385.757812 C 233.082031 378.535156 226.488281 373.261719 218.667969 371.300781 C 218.664062 371.300781 218.65625 371.300781 218.652344 371.300781 L 196.988281 365.878906 Z M 400.054688 299.324219 C 398.789062 299.296875 397.570312 299.519531 396.398438 299.992188 L 350.300781 318.429688 C 349.445312 318.773438 348.660156 319.234375 347.941406 319.808594 C 347.222656 320.386719 346.605469 321.058594 346.089844 321.820312 C 345.574219 322.582031 345.179688 323.402344 344.910156 324.28125 C 344.636719 325.164062 344.503906 326.0625 344.5 326.984375 L 344.5 354.644531 C 344.5 355.402344 344.59375 356.148438 344.777344 356.886719 C 344.964844 357.621094 345.234375 358.324219 345.59375 358.992188 C 345.949219 359.664062 346.386719 360.277344 346.894531 360.839844 C 347.40625 361.402344 347.976562 361.894531 348.605469 362.3125 L 376.265625 380.753906 C 376.707031 381.046875 377.167969 381.300781 377.652344 381.515625 C 378.136719 381.726562 378.632812 381.898438 379.148438 382.027344 C 379.660156 382.15625 380.179688 382.238281 380.707031 382.277344 C 381.234375 382.316406 381.761719 382.308594 382.289062 382.253906 C 382.8125 382.203125 383.332031 382.105469 383.839844 381.964844 C 384.351562 381.824219 384.84375 381.640625 385.324219 381.414062 C 385.800781 381.1875 386.257812 380.921875 386.6875 380.617188 C 387.121094 380.3125 387.523438 379.972656 387.898438 379.601562 L 415.558594 351.941406 C 416.121094 351.378906 416.601562 350.753906 417.003906 350.066406 C 417.40625 349.378906 417.710938 348.652344 417.925781 347.886719 C 418.136719 347.121094 418.25 346.339844 418.261719 345.542969 C 418.269531 344.746094 418.179688 343.964844 417.988281 343.191406 L 408.769531 306.3125 C 408.648438 305.828125 408.488281 305.351562 408.289062 304.894531 C 408.089844 304.433594 407.855469 303.992188 407.585938 303.570312 C 407.316406 303.148438 407.011719 302.75 406.679688 302.378906 C 406.34375 302.007812 405.980469 301.664062 405.589844 301.347656 C 405.199219 301.035156 404.785156 300.757812 404.347656 300.511719 C 403.910156 300.265625 403.457031 300.054688 402.988281 299.882812 C 402.515625 299.710938 402.035156 299.578125 401.542969 299.484375 C 401.050781 299.390625 400.554688 299.339844 400.054688 299.324219 Z M 393.425781 321.023438 L 398.828125 342.597656 L 380.210938 361.214844 L 362.941406 349.710938 L 362.941406 333.234375 Z M 482.417969 336.203125 C 480.402344 336.289062 478.605469 336.960938 477.03125 338.222656 L 430.933594 375.097656 C 430.292969 375.613281 429.734375 376.199219 429.25 376.863281 C 428.765625 377.523438 428.378906 378.238281 428.085938 379.003906 C 427.792969 379.769531 427.605469 380.5625 427.523438 381.378906 C 427.441406 382.191406 427.46875 383.003906 427.601562 383.8125 L 436.824219 439.132812 C 436.941406 439.847656 437.144531 440.542969 437.425781 441.210938 C 437.710938 441.882812 438.066406 442.511719 438.5 443.09375 C 438.929688 443.679688 439.425781 444.207031 439.980469 444.675781 C 440.539062 445.144531 441.140625 445.539062 441.792969 445.867188 L 497.109375 473.523438 C 497.589844 473.765625 498.085938 473.960938 498.601562 474.113281 C 499.113281 474.269531 499.636719 474.375 500.167969 474.4375 C 500.703125 474.5 501.234375 474.515625 501.769531 474.484375 C 502.304688 474.453125 502.835938 474.375 503.355469 474.253906 C 503.878906 474.128906 504.386719 473.960938 504.878906 473.75 C 505.371094 473.539062 505.839844 473.285156 506.289062 472.992188 C 506.738281 472.695312 507.15625 472.367188 507.546875 472 C 507.9375 471.632812 508.292969 471.234375 508.617188 470.804688 L 563.933594 397.050781 C 564.316406 396.539062 564.640625 395.992188 564.910156 395.414062 C 565.179688 394.835938 565.386719 394.238281 565.53125 393.613281 C 565.675781 392.992188 565.753906 392.363281 565.765625 391.726562 C 565.78125 391.089844 565.726562 390.457031 565.609375 389.828125 C 565.492188 389.203125 565.3125 388.59375 565.070312 388.003906 C 564.824219 387.414062 564.523438 386.855469 564.164062 386.328125 C 563.804688 385.800781 563.394531 385.316406 562.933594 384.875 C 562.472656 384.433594 561.972656 384.042969 561.429688 383.707031 L 487.675781 337.609375 C 486.066406 336.597656 484.3125 336.132812 482.417969 336.203125 Z M 483.460938 356.695312 L 543.152344 394.007812 L 498.476562 453.589844 L 454.234375 431.476562 L 446.671875 386.121094 Z M 593.160156 456.058594 C 592.644531 456.074219 592.132812 456.136719 591.628906 456.238281 L 545.53125 465.457031 C 545.183594 465.527344 544.84375 465.613281 544.507812 465.722656 C 544.167969 465.832031 543.839844 465.960938 543.519531 466.105469 C 543.199219 466.25 542.886719 466.414062 542.582031 466.597656 C 542.28125 466.78125 541.988281 466.976562 541.707031 467.195312 C 541.429688 467.410156 541.160156 467.640625 540.90625 467.886719 C 540.65625 468.132812 540.414062 468.390625 540.191406 468.664062 C 539.96875 468.941406 539.761719 469.226562 539.570312 469.523438 C 539.378906 469.820312 539.207031 470.128906 539.050781 470.445312 C 538.894531 470.761719 538.757812 471.085938 538.640625 471.421875 C 538.523438 471.753906 538.425781 472.09375 538.347656 472.4375 C 538.265625 472.78125 538.207031 473.128906 538.167969 473.480469 C 538.128906 473.832031 538.109375 474.183594 538.113281 474.535156 C 538.113281 474.890625 538.136719 475.242188 538.175781 475.59375 C 538.21875 475.945312 538.28125 476.289062 538.363281 476.632812 C 538.445312 476.976562 538.546875 477.316406 538.667969 477.648438 C 538.785156 477.980469 538.925781 478.304688 539.082031 478.621094 L 557.523438 515.5 C 557.90625 516.265625 558.386719 516.964844 558.964844 517.59375 C 559.542969 518.226562 560.195312 518.769531 560.921875 519.21875 C 561.652344 519.667969 562.425781 520.007812 563.25 520.242188 C 564.074219 520.476562 564.914062 520.59375 565.769531 520.59375 L 593.429688 520.59375 C 594.035156 520.59375 594.632812 520.535156 595.226562 520.417969 C 595.820312 520.296875 596.398438 520.125 596.957031 519.890625 C 597.515625 519.660156 598.046875 519.375 598.550781 519.039062 C 599.054688 518.703125 599.519531 518.320312 599.949219 517.894531 C 600.375 517.464844 600.757812 517 601.09375 516.496094 C 601.429688 515.992188 601.714844 515.460938 601.945312 514.902344 C 602.179688 514.34375 602.351562 513.765625 602.472656 513.171875 C 602.589844 512.578125 602.648438 511.980469 602.648438 511.375 L 602.648438 465.277344 C 602.648438 464.660156 602.585938 464.050781 602.464844 463.445312 C 602.34375 462.839844 602.160156 462.253906 601.921875 461.6875 C 601.679688 461.117188 601.386719 460.578125 601.039062 460.070312 C 600.691406 459.558594 600.296875 459.089844 599.851562 458.660156 C 599.410156 458.230469 598.929688 457.847656 598.410156 457.515625 C 597.890625 457.183594 597.34375 456.90625 596.769531 456.679688 C 596.195312 456.457031 595.601562 456.292969 594.996094 456.1875 C 594.386719 456.082031 593.773438 456.039062 593.160156 456.058594 Z M 584.210938 476.511719 L 584.210938 502.15625 L 571.460938 502.15625 L 560.980469 481.160156 Z M 196.988281 499.796875 L 232.03125 516.34375 C 234.308594 517.417969 236.03125 519.382812 236.820312 521.765625 C 236.828125 521.765625 236.832031 521.765625 236.839844 521.765625 L 250.074219 561.488281 C 252.644531 569.195312 258.480469 575.417969 266.046875 578.433594 L 300.097656 592.046875 C 301.441406 592.582031 302.628906 593.429688 303.589844 594.53125 L 319.582031 612.789062 L 196.988281 612.789062 Z M 196.988281 499.796875 " fill-opacity="1" fill-rule="nonzero"/></g><path fill="rgb(100%, 38.819885%, 4.708862%)" d="M 81 81 L 81 729 L 729 729 L 729 81 Z M 697.210938 697.210938 L 112.128906 697.210938 L 112.128906 112.128906 L 697.210938 112.128906 Z M 697.210938 697.210938 " fill-opacity="1" fill-rule="nonzero"/></svg>